<?xml version="1.0" encoding="utf-8"?>
<!-- Generator: Adobe Illustrator 25.0.0, SVG Export Plug-In . SVG Version: 6.00 Build 0)  -->
<svg version="1.1" id="圖層_1" xmlns="http://www.w3.org/2000/svg" xmlns:xlink="http://www.w3.org/1999/xlink" x="0px" y="0px"
	 viewBox="0 0 70.8 70.8" style="enable-background:new 0 0 70.8 70.8;" xml:space="preserve">
<style type="text/css">
	.st0{fill:#FFFFFF;stroke:#353535;stroke-width:1.1515;stroke-linecap:round;stroke-linejoin:round;stroke-miterlimit:10;}
	.st1{fill:#FFFFFF;}
</style>
<g>
	<g>
		<path class="st0" d="M15.9,53.4c-0.4-0.2-0.7-0.3-1-0.4c-0.3-0.1-0.5-0.2-0.7-0.2s-0.4-0.1-0.5-0.1c-0.1,0-0.3,0-0.4,0
			c-0.3,0-0.5,0.1-0.8,0.2s-0.5,0.3-0.6,0.6c0.1,0.1,0.1,0.1,0.2,0.2c0.1,0.1,0.2,0.1,0.3,0.2c0.1,0.1,0.3,0.2,0.5,0.3
			s0.5,0.2,0.8,0.4c0.4,0.2,0.6,0.3,0.9,0.5c0.2,0.1,0.4,0.2,0.5,0.4c0.1,0.1,0.2,0.2,0.3,0.3c0.1,0.1,0.1,0.2,0.1,0.3
			c0,0.2-0.1,0.5-0.3,0.7c-0.2,0.3-0.5,0.5-0.8,0.7s-0.7,0.4-1.1,0.5c-0.4,0.1-0.8,0.2-1.2,0.2c-0.2,0-0.4,0-0.6-0.1
			S10.8,58,10.6,58c-0.2-0.1-0.5-0.1-0.7-0.2c-0.2-0.1-0.5-0.2-0.7-0.3l0.7-1c0.5,0.2,1,0.4,1.4,0.5s0.8,0.2,1.2,0.2
			c0.7,0,1.3-0.3,1.7-0.8c-0.4-0.3-0.8-0.5-1.2-0.7c-0.4-0.2-0.8-0.4-1.1-0.6c-0.2-0.1-0.4-0.2-0.6-0.3c-0.2-0.1-0.3-0.2-0.4-0.3
			c-0.1-0.1-0.2-0.2-0.2-0.3c0-0.1-0.1-0.2-0.1-0.4c0-0.2,0.1-0.4,0.3-0.6c0.2-0.2,0.4-0.4,0.7-0.6s0.6-0.4,1-0.5
			c0.4-0.1,0.7-0.2,1.1-0.2c0.5,0,1,0.1,1.4,0.2s0.9,0.3,1.5,0.5L15.9,53.4z"/>
		<path class="st0" d="M25.7,53.1c0,0.3-0.1,0.6-0.2,1c-0.2,0.4-0.3,0.7-0.6,1.1c-0.2,0.4-0.5,0.7-0.8,1.1s-0.6,0.7-0.9,1
			c-0.3,0.3-0.6,0.5-0.8,0.7c-0.2,0.1-0.4,0.2-0.5,0.2c-0.2,0-0.3-0.1-0.5-0.3c-0.2-0.2-0.3-0.6-0.4-1.1c-0.1,0.2-0.3,0.3-0.5,0.5
			s-0.4,0.3-0.6,0.5c-0.2,0.1-0.4,0.3-0.6,0.4c-0.2,0.1-0.3,0.1-0.5,0.1c-0.1,0-0.2,0-0.3-0.1c-0.1-0.1-0.2-0.2-0.3-0.3
			c-0.1-0.1-0.2-0.3-0.3-0.4c-0.1-0.2-0.1-0.3-0.1-0.5c0-0.2,0-0.5,0.1-0.7c0-0.3,0.1-0.5,0.2-0.7s0.2-0.5,0.3-0.7
			c0.1-0.2,0.2-0.4,0.3-0.6l1.5-0.3c-0.2,0.2-0.3,0.5-0.5,0.8s-0.2,0.5-0.3,0.8c-0.1,0.3-0.2,0.5-0.2,0.8S19,56.7,19,56.9l0.3,0.3
			c0.3-0.2,0.6-0.4,0.8-0.5c0.2-0.1,0.4-0.3,0.6-0.4c0.1-0.1,0.2-0.1,0.2-0.2c0-0.1,0-0.2,0-0.3c0-0.4,0-0.7,0.1-1
			c0.1-0.2,0.2-0.4,0.4-0.6c0.2-0.2,0.4-0.3,0.6-0.4c0.2-0.1,0.4-0.1,0.7-0.1c0.1,0,0.2,0,0.3,0.1C23,54,23,54.1,23,54.2
			c0,0.1-0.1,0.3-0.2,0.5c-0.1,0.2-0.3,0.4-0.7,0.7c-0.1,0.1-0.1,0.1-0.2,0.2c0,0.1,0,0.2,0,0.3c0,0.2,0.1,0.3,0.1,0.6
			c0.1,0.2,0.1,0.4,0.2,0.7c0.3-0.1,0.5-0.4,0.8-0.6s0.6-0.6,1-1.1c0.1-0.2,0.2-0.3,0.2-0.4c0-0.1,0-0.2-0.1-0.3
			c-0.2-0.3-0.2-0.5-0.2-0.7c0-0.2,0.1-0.3,0.3-0.5c0.2-0.1,0.3-0.3,0.4-0.4c0.1-0.1,0.3-0.2,0.4-0.3c0.2-0.1,0.3-0.2,0.4-0.2
			C25.6,52.8,25.7,52.9,25.7,53.1z"/>
		<path class="st0" d="M29,54.1c-0.4,0.6-0.7,1.2-0.9,1.9c-0.2,0.6-0.3,1.3-0.3,2l-1.5,0.3c0.1-0.7,0.2-1.4,0.4-2
			c0.2-0.6,0.4-1.2,0.8-1.8L29,54.1z M29.5,53.3c-0.3,0.1-0.6,0.1-0.8,0.1c-0.3,0-0.5,0-0.7-0.1c-0.2-0.1-0.3-0.2-0.3-0.3
			c0-0.1,0-0.2,0.1-0.2c0.1-0.1,0.2-0.2,0.3-0.2c0.1-0.1,0.2-0.1,0.4-0.2c0.1,0,0.3-0.1,0.4-0.1c0.1,0,0.2,0,0.3,0
			c0.1,0,0.1,0.1,0.1,0.2v0.2c0,0.1,0,0.2,0.1,0.3C29.4,53.1,29.4,53.2,29.5,53.3z"/>
		<path class="st0" d="M36.6,54.8c0,0.4-0.1,0.8-0.4,1.2c-0.3,0.4-0.7,0.8-1.2,1.2c-0.1,0.1-0.3,0.2-0.4,0.3s-0.3,0.2-0.5,0.2
			s-0.3,0.1-0.4,0.2S33.4,58,33.3,58c-0.1,0-0.3,0-0.4-0.1c-0.1-0.1-0.2-0.2-0.2-0.3c0-0.1,0-0.1,0.1-0.2c0-0.1,0.1-0.1,0.2-0.1
			s0.3-0.1,0.5-0.1c0.2,0,0.5,0,0.8,0c0.2-0.2,0.3-0.4,0.4-0.6c0.1-0.2,0.2-0.3,0.3-0.5s0.2-0.3,0.2-0.5c0.1-0.2,0.1-0.3,0.2-0.5
			L35,54.7c-0.4,0.2-0.7,0.4-1,0.6c-0.3,0.2-0.5,0.5-0.8,0.8c-0.2,0.3-0.4,0.7-0.7,1.1c-0.2,0.4-0.4,0.9-0.7,1.6
			c-0.2,0.6-0.5,0.9-0.7,0.9c-0.1,0-0.2,0-0.3-0.1c-0.1-0.1-0.2-0.2-0.4-0.5c-0.2-0.2-0.2-0.4-0.2-0.5c0-0.1,0.1-0.3,0.2-0.4
			c0.2-0.3,0.4-0.5,0.6-0.7s0.3-0.4,0.5-0.7c0.1-0.1,0.1-0.2,0.2-0.3c0-0.1,0.1-0.3,0.1-0.5c0-0.2,0-0.4,0.1-0.7c0-0.3,0-0.6,0-1.1
			l1.5-0.2c0,0.3-0.1,0.5-0.1,0.7c0,0.2-0.1,0.5-0.1,0.8c0.6-0.6,1-1,1.4-1.2c0.4-0.3,0.8-0.4,1-0.4c0.1,0,0.2,0,0.3,0.1
			c0.1,0.1,0.2,0.1,0.3,0.2c0.1,0.1,0.2,0.2,0.3,0.3S36.6,54.7,36.6,54.8z"/>
		<path class="st0" d="M42.5,54.7c0,0.2,0,0.4-0.1,0.6c-0.1,0.2-0.3,0.3-0.5,0.4s-0.6,0.2-1.1,0.3c-0.5,0.1-1.1,0.2-1.8,0.3
			c0,0.2,0.1,0.4,0.2,0.5c0.1,0.2,0.3,0.4,0.5,0.5c0.2-0.1,0.5-0.1,0.7-0.2c0.2,0,0.4-0.1,0.6-0.2s0.4-0.1,0.6-0.2
			c0.2-0.1,0.4-0.2,0.6-0.3l0,0.3c0,0.1,0,0.1,0,0.2c0,0-0.1,0.1-0.2,0.1c-0.1,0.1-0.2,0.1-0.4,0.2s-0.4,0.2-0.7,0.3
			c-0.3,0.1-0.6,0.2-0.9,0.3C39.5,58,39.3,58,39.1,58c-0.2,0-0.4,0-0.5-0.1c-0.2-0.1-0.4-0.2-0.5-0.3c-0.2-0.1-0.3-0.2-0.4-0.4
			c-0.1-0.1-0.1-0.3-0.1-0.4c0-0.1,0-0.2,0-0.3c0-0.1,0.1-0.2,0.1-0.4c0.1-0.1,0.2-0.3,0.3-0.5c0.1-0.2,0.3-0.4,0.4-0.7
			c0.2-0.3,0.6-0.6,1.1-0.8c0.5-0.2,1.1-0.3,1.9-0.3c0.4,0,0.7,0.1,0.9,0.2C42.4,54.1,42.5,54.3,42.5,54.7z M41.2,54.3l-1.3,0.2
			c-0.2,0.2-0.3,0.4-0.5,0.6c-0.1,0.2-0.3,0.4-0.4,0.7c0.5,0,0.9-0.1,1.2-0.1c0.3-0.1,0.5-0.1,0.7-0.2c0.2-0.1,0.3-0.2,0.3-0.3
			c0.1-0.1,0.1-0.2,0.1-0.4V54.3z"/>
		<path class="st0" d="M54.1,53.4c-0.1,0.2-0.3,0.4-0.4,0.6c-0.2,0.2-0.4,0.4-0.6,0.7c-0.1,0.1-0.2,0.3-0.3,0.6
			c-0.1,0.3-0.1,0.6-0.1,0.9c0,0.4,0,0.7,0.1,1c0,0.3,0.1,0.5,0.2,0.7l-1.6,0.3c-0.1-0.3-0.1-0.7-0.1-1.1c0-0.4,0.1-0.8,0.2-1.2
			c-0.2,0.2-0.4,0.5-0.6,0.7c-0.3,0.3-0.5,0.5-0.8,0.7s-0.6,0.4-0.9,0.6c-0.3,0.2-0.5,0.2-0.7,0.2c-0.2,0-0.4-0.1-0.6-0.2
			c-0.2-0.1-0.4-0.3-0.5-0.4c-0.2-0.2-0.3-0.3-0.4-0.5c-0.1-0.2-0.1-0.3-0.1-0.4c0-0.1,0-0.2,0.1-0.3c0-0.1,0.1-0.3,0.2-0.6
			c0.2-0.4,0.3-0.8,0.4-1.1c0.1-0.3,0.2-0.6,0.3-0.9c0.1-0.3,0.1-0.5,0.2-0.8c0-0.2,0.1-0.4,0.1-0.7l1.6-0.4c0,0.3,0,0.7-0.1,1
			c-0.1,0.3-0.1,0.7-0.3,1.1c-0.1,0.4-0.3,0.8-0.5,1.2c-0.2,0.4-0.4,0.8-0.7,1.3c0.1,0.2,0.2,0.3,0.4,0.5c0.1,0.1,0.3,0.2,0.5,0.4
			c0.3-0.1,0.6-0.3,0.9-0.5s0.6-0.5,0.8-0.8c0.3-0.3,0.5-0.6,0.8-1c0.2-0.4,0.4-0.7,0.6-1.1c0.1-0.4,0.3-0.7,0.4-0.9
			s0.2-0.5,0.3-0.6c0.1-0.3,0.2-0.4,0.3-0.5s0.2,0,0.3,0.1c0.1,0.1,0.2,0.1,0.4,0.2c0.1,0.1,0.2,0.2,0.3,0.3
			c0.1,0.2,0.2,0.3,0.2,0.5S54.2,53.2,54.1,53.4z"/>
		<path class="st0" d="M61.5,54.8c0,0.4-0.1,0.8-0.4,1.2c-0.3,0.4-0.7,0.8-1.2,1.2c-0.1,0.1-0.3,0.2-0.4,0.3
			c-0.2,0.1-0.3,0.2-0.5,0.2c-0.2,0.1-0.3,0.1-0.4,0.2c-0.1,0-0.2,0.1-0.3,0.1c-0.1,0-0.3,0-0.4-0.1c-0.1-0.1-0.2-0.2-0.2-0.3
			c0-0.1,0-0.1,0.1-0.2s0.1-0.1,0.2-0.1s0.3-0.1,0.5-0.1c0.2,0,0.5,0,0.8,0c0.2-0.2,0.3-0.4,0.4-0.6c0.1-0.2,0.2-0.3,0.3-0.5
			s0.2-0.3,0.2-0.5c0.1-0.2,0.1-0.3,0.2-0.5l-0.4-0.4c-0.4,0.2-0.7,0.4-1,0.6s-0.5,0.5-0.8,0.8c-0.2,0.3-0.4,0.7-0.7,1.1
			c-0.2,0.4-0.4,0.9-0.7,1.6c-0.2,0.6-0.5,0.9-0.7,0.9c-0.1,0-0.2,0-0.3-0.1c-0.1-0.1-0.2-0.2-0.4-0.5c-0.2-0.2-0.2-0.4-0.2-0.5
			c0-0.1,0.1-0.3,0.2-0.4c0.2-0.3,0.4-0.5,0.6-0.7s0.3-0.4,0.5-0.7c0.1-0.1,0.1-0.2,0.2-0.3c0-0.1,0.1-0.3,0.1-0.5
			c0-0.2,0-0.4,0.1-0.7c0-0.3,0-0.6,0-1.1l1.5-0.2c0,0.3-0.1,0.5-0.1,0.7c0,0.2-0.1,0.5-0.1,0.8c0.6-0.6,1-1,1.4-1.2
			c0.4-0.3,0.8-0.4,1-0.4c0.1,0,0.2,0,0.3,0.1s0.2,0.1,0.3,0.2c0.1,0.1,0.2,0.2,0.3,0.3S61.5,54.7,61.5,54.8z"/>
	</g>
	<g>
		<path class="st1" d="M15.9,53.4c-0.4-0.2-0.7-0.3-1-0.4c-0.3-0.1-0.5-0.2-0.7-0.2s-0.4-0.1-0.5-0.1c-0.1,0-0.3,0-0.4,0
			c-0.3,0-0.5,0.1-0.8,0.2s-0.5,0.3-0.6,0.6c0.1,0.1,0.1,0.1,0.2,0.2c0.1,0.1,0.2,0.1,0.3,0.2c0.1,0.1,0.3,0.2,0.5,0.3
			s0.5,0.2,0.8,0.4c0.4,0.2,0.6,0.3,0.9,0.5c0.2,0.1,0.4,0.2,0.5,0.4c0.1,0.1,0.2,0.2,0.3,0.3c0.1,0.1,0.1,0.2,0.1,0.3
			c0,0.2-0.1,0.5-0.3,0.7c-0.2,0.3-0.5,0.5-0.8,0.7s-0.7,0.4-1.1,0.5c-0.4,0.1-0.8,0.2-1.2,0.2c-0.2,0-0.4,0-0.6-0.1
			S10.8,58,10.6,58c-0.2-0.1-0.5-0.1-0.7-0.2c-0.2-0.1-0.5-0.2-0.7-0.3l0.7-1c0.5,0.2,1,0.4,1.4,0.5s0.8,0.2,1.2,0.2
			c0.7,0,1.3-0.3,1.7-0.8c-0.4-0.3-0.8-0.5-1.2-0.7c-0.4-0.2-0.8-0.4-1.1-0.6c-0.2-0.1-0.4-0.2-0.6-0.3c-0.2-0.1-0.3-0.2-0.4-0.3
			c-0.1-0.1-0.2-0.2-0.2-0.3c0-0.1-0.1-0.2-0.1-0.4c0-0.2,0.1-0.4,0.3-0.6c0.2-0.2,0.4-0.4,0.7-0.6s0.6-0.4,1-0.5
			c0.4-0.1,0.7-0.2,1.1-0.2c0.5,0,1,0.1,1.4,0.2s0.9,0.3,1.5,0.5L15.9,53.4z"/>
		<path class="st1" d="M25.7,53.1c0,0.3-0.1,0.6-0.2,1c-0.2,0.4-0.3,0.7-0.6,1.1c-0.2,0.4-0.5,0.7-0.8,1.1s-0.6,0.7-0.9,1
			c-0.3,0.3-0.6,0.5-0.8,0.7c-0.2,0.1-0.4,0.2-0.5,0.2c-0.2,0-0.3-0.1-0.5-0.3c-0.2-0.2-0.3-0.6-0.4-1.1c-0.1,0.2-0.3,0.3-0.5,0.5
			s-0.4,0.3-0.6,0.5c-0.2,0.1-0.4,0.3-0.6,0.4c-0.2,0.1-0.3,0.1-0.5,0.1c-0.1,0-0.2,0-0.3-0.1c-0.1-0.1-0.2-0.2-0.3-0.3
			c-0.1-0.1-0.2-0.3-0.3-0.4c-0.1-0.2-0.1-0.3-0.1-0.5c0-0.2,0-0.5,0.1-0.7c0-0.3,0.1-0.5,0.2-0.7s0.2-0.5,0.3-0.7
			c0.1-0.2,0.2-0.4,0.3-0.6l1.5-0.3c-0.2,0.2-0.3,0.5-0.5,0.8s-0.2,0.5-0.3,0.8c-0.1,0.3-0.2,0.5-0.2,0.8S19,56.7,19,56.9l0.3,0.3
			c0.3-0.2,0.6-0.4,0.8-0.5c0.2-0.1,0.4-0.3,0.6-0.4c0.1-0.1,0.2-0.1,0.2-0.2c0-0.1,0-0.2,0-0.3c0-0.4,0-0.7,0.1-1
			c0.1-0.2,0.2-0.4,0.4-0.6c0.2-0.2,0.4-0.3,0.6-0.4c0.2-0.1,0.4-0.1,0.7-0.1c0.1,0,0.2,0,0.3,0.1C23,54,23,54.1,23,54.2
			c0,0.1-0.1,0.3-0.2,0.5c-0.1,0.2-0.3,0.4-0.7,0.7c-0.1,0.1-0.1,0.1-0.2,0.2c0,0.1,0,0.2,0,0.3c0,0.2,0.1,0.3,0.1,0.6
			c0.1,0.2,0.1,0.4,0.2,0.7c0.3-0.1,0.5-0.4,0.8-0.6s0.6-0.6,1-1.1c0.1-0.2,0.2-0.3,0.2-0.4c0-0.1,0-0.2-0.1-0.3
			c-0.2-0.3-0.2-0.5-0.2-0.7c0-0.2,0.1-0.3,0.3-0.5c0.2-0.1,0.3-0.3,0.4-0.4c0.1-0.1,0.3-0.2,0.4-0.3c0.2-0.1,0.3-0.2,0.4-0.2
			C25.6,52.8,25.7,52.9,25.7,53.1z"/>
		<path class="st1" d="M29,54.1c-0.4,0.6-0.7,1.2-0.9,1.9c-0.2,0.6-0.3,1.3-0.3,2l-1.5,0.3c0.1-0.7,0.2-1.4,0.4-2
			c0.2-0.6,0.4-1.2,0.8-1.8L29,54.1z M29.5,53.3c-0.3,0.1-0.6,0.1-0.8,0.1c-0.3,0-0.5,0-0.7-0.1c-0.2-0.1-0.3-0.2-0.3-0.3
			c0-0.1,0-0.2,0.1-0.2c0.1-0.1,0.2-0.2,0.3-0.2c0.1-0.1,0.2-0.1,0.4-0.2c0.1,0,0.3-0.1,0.4-0.1c0.1,0,0.2,0,0.3,0
			c0.1,0,0.1,0.1,0.1,0.2v0.2c0,0.1,0,0.2,0.1,0.3C29.4,53.1,29.4,53.2,29.5,53.3z"/>
		<path class="st1" d="M36.6,54.8c0,0.4-0.1,0.8-0.4,1.2c-0.3,0.4-0.7,0.8-1.2,1.2c-0.1,0.1-0.3,0.2-0.4,0.3s-0.3,0.2-0.5,0.2
			s-0.3,0.1-0.4,0.2S33.4,58,33.3,58c-0.1,0-0.3,0-0.4-0.1c-0.1-0.1-0.2-0.2-0.2-0.3c0-0.1,0-0.1,0.1-0.2c0-0.1,0.1-0.1,0.2-0.1
			s0.3-0.1,0.5-0.1c0.2,0,0.5,0,0.8,0c0.2-0.2,0.3-0.4,0.4-0.6c0.1-0.2,0.2-0.3,0.3-0.5s0.2-0.3,0.2-0.5c0.1-0.2,0.1-0.3,0.2-0.5
			L35,54.7c-0.4,0.2-0.7,0.4-1,0.6c-0.3,0.2-0.5,0.5-0.8,0.8c-0.2,0.3-0.4,0.7-0.7,1.1c-0.2,0.4-0.4,0.9-0.7,1.6
			c-0.2,0.6-0.5,0.9-0.7,0.9c-0.1,0-0.2,0-0.3-0.1c-0.1-0.1-0.2-0.2-0.4-0.5c-0.2-0.2-0.2-0.4-0.2-0.5c0-0.1,0.1-0.3,0.2-0.4
			c0.2-0.3,0.4-0.5,0.6-0.7s0.3-0.4,0.5-0.7c0.1-0.1,0.1-0.2,0.2-0.3c0-0.1,0.1-0.3,0.1-0.5c0-0.2,0-0.4,0.1-0.7c0-0.3,0-0.6,0-1.1
			l1.5-0.2c0,0.3-0.1,0.5-0.1,0.7c0,0.2-0.1,0.5-0.1,0.8c0.6-0.6,1-1,1.4-1.2c0.4-0.3,0.8-0.4,1-0.4c0.1,0,0.2,0,0.3,0.1
			c0.1,0.1,0.2,0.1,0.3,0.2c0.1,0.1,0.2,0.2,0.3,0.3S36.6,54.7,36.6,54.8z"/>
		<path class="st1" d="M42.5,54.7c0,0.2,0,0.4-0.1,0.6c-0.1,0.2-0.3,0.3-0.5,0.4s-0.6,0.2-1.1,0.3c-0.5,0.1-1.1,0.2-1.8,0.3
			c0,0.2,0.1,0.4,0.2,0.5c0.1,0.2,0.3,0.4,0.5,0.5c0.2-0.1,0.5-0.1,0.7-0.2c0.2,0,0.4-0.1,0.6-0.2s0.4-0.1,0.6-0.2
			c0.2-0.1,0.4-0.2,0.6-0.3l0,0.3c0,0.1,0,0.1,0,0.2c0,0-0.1,0.1-0.2,0.1c-0.1,0.1-0.2,0.1-0.4,0.2s-0.4,0.2-0.7,0.3
			c-0.3,0.1-0.6,0.2-0.9,0.3C39.5,58,39.3,58,39.1,58c-0.2,0-0.4,0-0.5-0.1c-0.2-0.1-0.4-0.2-0.5-0.3c-0.2-0.1-0.3-0.2-0.4-0.4
			c-0.1-0.1-0.1-0.3-0.1-0.4c0-0.1,0-0.2,0-0.3c0-0.1,0.1-0.2,0.1-0.4c0.1-0.1,0.2-0.3,0.3-0.5c0.1-0.2,0.3-0.4,0.4-0.7
			c0.2-0.3,0.6-0.6,1.1-0.8c0.5-0.2,1.1-0.3,1.9-0.3c0.4,0,0.7,0.1,0.9,0.2C42.4,54.1,42.5,54.3,42.5,54.7z M41.2,54.3l-1.3,0.2
			c-0.2,0.2-0.3,0.4-0.5,0.6c-0.1,0.2-0.3,0.4-0.4,0.7c0.5,0,0.9-0.1,1.2-0.1c0.3-0.1,0.5-0.1,0.7-0.2c0.2-0.1,0.3-0.2,0.3-0.3
			c0.1-0.1,0.1-0.2,0.1-0.4V54.3z"/>
		<path class="st1" d="M54.1,53.4c-0.1,0.2-0.3,0.4-0.4,0.6c-0.2,0.2-0.4,0.4-0.6,0.7c-0.1,0.1-0.2,0.3-0.3,0.6
			c-0.1,0.3-0.1,0.6-0.1,0.9c0,0.4,0,0.7,0.1,1c0,0.3,0.1,0.5,0.2,0.7l-1.6,0.3c-0.1-0.3-0.1-0.7-0.1-1.1c0-0.4,0.1-0.8,0.2-1.2
			c-0.2,0.2-0.4,0.5-0.6,0.7c-0.3,0.3-0.5,0.5-0.8,0.7s-0.6,0.4-0.9,0.6c-0.3,0.2-0.5,0.2-0.7,0.2c-0.2,0-0.4-0.1-0.6-0.2
			c-0.2-0.1-0.4-0.3-0.5-0.4c-0.2-0.2-0.3-0.3-0.4-0.5c-0.1-0.2-0.1-0.3-0.1-0.4c0-0.1,0-0.2,0.1-0.3c0-0.1,0.1-0.3,0.2-0.6
			c0.2-0.4,0.3-0.8,0.4-1.1c0.1-0.3,0.2-0.6,0.3-0.9c0.1-0.3,0.1-0.5,0.2-0.8c0-0.2,0.1-0.4,0.1-0.7l1.6-0.4c0,0.3,0,0.7-0.1,1
			c-0.1,0.3-0.1,0.7-0.3,1.1c-0.1,0.4-0.3,0.8-0.5,1.2c-0.2,0.4-0.4,0.8-0.7,1.3c0.1,0.2,0.2,0.3,0.4,0.5c0.1,0.1,0.3,0.2,0.5,0.4
			c0.3-0.1,0.6-0.3,0.9-0.5s0.6-0.5,0.8-0.8c0.3-0.3,0.5-0.6,0.8-1c0.2-0.4,0.4-0.7,0.6-1.1c0.1-0.4,0.3-0.7,0.4-0.9
			s0.2-0.5,0.3-0.6c0.1-0.3,0.2-0.4,0.3-0.5s0.2,0,0.3,0.1c0.1,0.1,0.2,0.1,0.4,0.2c0.1,0.1,0.2,0.2,0.3,0.3
			c0.1,0.2,0.2,0.3,0.2,0.5S54.2,53.2,54.1,53.4z"/>
		<path class="st1" d="M61.5,54.8c0,0.4-0.1,0.8-0.4,1.2c-0.3,0.4-0.7,0.8-1.2,1.2c-0.1,0.1-0.3,0.2-0.4,0.3
			c-0.2,0.1-0.3,0.2-0.5,0.2c-0.2,0.1-0.3,0.1-0.4,0.2c-0.1,0-0.2,0.1-0.3,0.1c-0.1,0-0.3,0-0.4-0.1c-0.1-0.1-0.2-0.2-0.2-0.3
			c0-0.1,0-0.1,0.1-0.2s0.1-0.1,0.2-0.1s0.3-0.1,0.5-0.1c0.2,0,0.5,0,0.8,0c0.2-0.2,0.3-0.4,0.4-0.6c0.1-0.2,0.2-0.3,0.3-0.5
			s0.2-0.3,0.2-0.5c0.1-0.2,0.1-0.3,0.2-0.5l-0.4-0.4c-0.4,0.2-0.7,0.4-1,0.6s-0.5,0.5-0.8,0.8c-0.2,0.3-0.4,0.7-0.7,1.1
			c-0.2,0.4-0.4,0.9-0.7,1.6c-0.2,0.6-0.5,0.9-0.7,0.9c-0.1,0-0.2,0-0.3-0.1c-0.1-0.1-0.2-0.2-0.4-0.5c-0.2-0.2-0.2-0.4-0.2-0.5
			c0-0.1,0.1-0.3,0.2-0.4c0.2-0.3,0.4-0.5,0.6-0.7s0.3-0.4,0.5-0.7c0.1-0.1,0.1-0.2,0.2-0.3c0-0.1,0.1-0.3,0.1-0.5
			c0-0.2,0-0.4,0.1-0.7c0-0.3,0-0.6,0-1.1l1.5-0.2c0,0.3-0.1,0.5-0.1,0.7c0,0.2-0.1,0.5-0.1,0.8c0.6-0.6,1-1,1.4-1.2
			c0.4-0.3,0.8-0.4,1-0.4c0.1,0,0.2,0,0.3,0.1s0.2,0.1,0.3,0.2c0.1,0.1,0.2,0.2,0.3,0.3S61.5,54.7,61.5,54.8z"/>
	</g>
</g>
</svg>
